<?xml version="1.0" standalone="no"?>
<!DOCTYPE svg PUBLIC "-//W3C//DTD SVG 20010904//EN"
 "http://www.w3.org/TR/2001/REC-SVG-20010904/DTD/svg10.dtd">
<svg version="1.0" xmlns="http://www.w3.org/2000/svg"
 width="512.000000pt" height="512.000000pt" viewBox="0 0 512.000000 512.000000"
 preserveAspectRatio="xMidYMid meet">

<g transform="translate(0.000000,512.000000) scale(0.100000,-0.100000)"
fill="#000000" stroke="none">
<path d="M0 2560 l0 -2560 2560 0 2560 0 0 2560 0 2560 -2560 0 -2560 0 0
-2560z m1856 913 c-3 -10 -31 -126 -61 -258 -31 -132 -58 -248 -61 -257 -5
-16 -20 -18 -120 -18 -63 0 -114 2 -114 5 0 2 16 72 35 154 19 82 35 154 35
160 0 8 -31 11 -107 9 l-108 -3 -107 -470 c-59 -258 -108 -478 -108 -487 0
-16 10 -18 75 -18 53 0 75 -4 75 -12 0 -7 -10 -57 -22 -110 l-23 -98 -349 0
c-274 0 -347 3 -343 13 2 6 15 56 28 110 l23 97 83 0 c46 0 83 4 83 8 0 6 191
849 215 950 5 22 4 22 -104 22 l-109 0 -15 -67 c-9 -38 -26 -112 -38 -165
l-22 -98 -114 0 c-88 0 -113 3 -113 13 0 8 27 130 60 272 33 142 60 260 60
262 0 1 286 3 636 3 601 0 635 -1 630 -17z m741 -458 c85 -258 158 -473 162
-477 3 -4 41 149 84 340 43 191 81 357 84 370 5 21 3 22 -62 22 -58 0 -66 2
-62 18 3 9 15 59 27 110 l22 92 258 0 258 0 -24 -101 c-13 -55 -24 -105 -24
-110 0 -5 -31 -9 -69 -9 -63 0 -69 -2 -74 -22 -3 -13 -65 -279 -137 -593 -73
-313 -135 -573 -139 -578 -4 -4 -77 -6 -161 -5 l-154 3 -180 552 c-99 304
-183 549 -186 545 -6 -6 -200 -858 -200 -874 0 -5 32 -8 70 -8 50 0 70 -4 70
-12 -1 -7 -11 -56 -23 -108 l-22 -95 -268 -3 c-147 -1 -267 0 -267 3 0 3 12
53 26 110 l26 105 67 0 67 0 108 477 c60 263 111 483 113 490 4 10 -12 13 -61
13 -46 0 -66 4 -66 13 0 12 37 172 45 195 3 10 63 12 270 10 l266 -3 156 -470z
m1632 460 c130 -31 221 -105 262 -214 30 -79 24 -204 -13 -277 -43 -83 -117
-140 -226 -174 l-53 -16 59 -46 c267 -207 160 -570 -195 -662 -51 -13 -134
-16 -512 -16 -248 0 -451 3 -451 6 0 3 9 40 19 82 10 43 22 89 25 104 6 26 9
27 78 30 l71 3 112 485 111 485 -68 3 c-37 2 -68 5 -68 9 0 7 40 183 45 201 7
19 718 17 804 -3z m-559 -1442 c0 -5 -5 -25 -11 -45 l-10 -38 -64 0 c-36 0
-65 3 -65 8 0 4 5 24 11 45 l10 37 64 0 c36 0 65 -3 65 -7z m45 -180 c-9 -52
-11 -53 -55 -53 l-38 0 -31 -132 c-51 -217 -51 -198 -2 -198 36 0 42 -3 37
-17 -3 -10 -8 -30 -12 -45 l-6 -28 -149 0 c-162 0 -155 -3 -143 59 6 29 9 31
50 31 24 0 44 2 44 4 0 3 16 74 35 157 19 84 35 156 35 161 0 4 -18 8 -41 8
-34 0 -40 3 -35 18 3 9 8 29 12 45 l6 27 150 0 150 0 -7 -37z m-924 -6 c24
-13 58 -43 74 -66 27 -38 30 -51 30 -114 -1 -90 -26 -149 -90 -211 -117 -114
-300 -115 -389 -3 -29 37 -31 44 -31 125 0 77 3 93 27 134 35 59 107 123 161
142 67 23 166 20 218 -7z m-812 -61 c6 -41 14 -100 17 -130 4 -31 10 -58 13
-61 4 -2 43 57 87 130 l79 135 114 0 c113 0 113 0 107 -22 -3 -13 -6 -28 -6
-35 0 -6 -10 -13 -22 -15 -19 -3 -25 -19 -54 -148 -40 -175 -41 -190 -14 -190
23 0 24 -8 10 -44 -9 -26 -11 -26 -115 -26 l-105 0 6 28 c8 33 13 39 39 44 17
3 25 27 56 168 21 91 36 166 35 167 -1 1 -56 -89 -122 -200 -110 -184 -124
-202 -151 -205 l-29 -3 -23 173 c-25 196 -32 240 -37 236 -3 -4 -74 -317 -74
-330 0 -4 10 -8 21 -8 17 0 20 -4 15 -22 -3 -13 -6 -29 -6 -35 0 -9 -23 -13
-80 -13 l-80 0 0 35 c0 30 3 35 23 35 22 0 26 9 56 148 18 81 35 157 38 170 4
17 1 22 -16 22 -22 0 -25 10 -15 48 6 21 11 22 114 22 l108 0 11 -74z m1332
38 c58 -59 44 -153 -29 -185 l-30 -13 29 -33 c57 -65 31 -156 -55 -197 -27
-13 -67 -16 -195 -16 l-161 0 6 28 c10 39 13 42 38 42 21 0 25 11 55 148 17
81 34 158 38 170 4 18 1 22 -16 22 -22 0 -27 22 -15 55 6 14 24 16 155 13
l149 -3 31 -31z m679 32 c0 -25 -26 -65 -43 -68 -20 -3 -25 -18 -53 -144 -17
-78 -34 -153 -38 -168 l-6 -26 64 0 65 0 16 75 17 75 50 0 c36 0 49 -4 45 -12
-2 -7 -15 -57 -27 -110 l-22 -98 -194 0 c-185 0 -194 1 -194 19 0 34 12 51 34
51 21 0 25 11 55 153 18 83 34 160 37 170 4 13 -1 17 -20 17 -27 0 -30 8 -20
48 6 21 11 22 120 22 63 0 114 -2 114 -4z"/>
<path d="M3887 3264 c-2 -5 -21 -81 -41 -169 -20 -88 -39 -166 -42 -174 -4
-11 15 -13 104 -9 91 4 115 8 152 29 61 33 92 90 94 173 2 114 -35 147 -175
154 -48 2 -89 0 -92 -4z"/>
<path d="M3755 2698 c-7 -20 -95 -389 -95 -399 0 -15 182 -10 237 6 54 16 114
71 135 123 18 46 27 118 18 157 -11 51 -62 101 -116 114 -60 15 -173 14 -179
-1z"/>
<path d="M2624 1786 c-87 -39 -144 -209 -99 -296 34 -66 136 -58 187 15 35 51
62 154 53 205 -12 69 -78 104 -141 76z"/>
<path d="M3137 1783 c-2 -5 -7 -26 -11 -48 -4 -22 -10 -49 -13 -59 -5 -17 -1
-18 36 -13 23 3 48 11 56 17 18 15 20 81 3 98 -13 13 -64 16 -71 5z"/>
<path d="M3080 1533 c-7 -32 -15 -64 -18 -72 -9 -24 89 -8 110 19 39 49 10
110 -53 110 -23 0 -27 -5 -39 -57z"/>
</g>
</svg>
